<?xml version="1.0" encoding="UTF-8" standalone="no"?>
<!-- Created with Inkscape (http://www.inkscape.org/) -->

<svg
   version="1.1"
   id="svg1"
   width="1133.8533"
   height="1133.8533"
   viewBox="0 0 1133.8533 1133.8533"
   xmlns="http://www.w3.org/2000/svg"
   xmlns:svg="http://www.w3.org/2000/svg">
  <defs
     id="defs1" />
  <g
     id="g1">
    <g
       id="group-R5">
      <path
         id="path3"
         d="m 433.0486,579.72784 c 14.73109,-12.80982 36.16471,-24.97318 50.42515,-24.97318 0.9187,0 1.80573,0.0511 2.66109,0.15311 3.09104,0.37425 7.10984,1.50554 10.82091,6.97905 16.61831,24.49684 -9.88862,68.16589 -22.04913,85.80702 -24.34816,35.29502 -54.3127,66.06495 -86.65322,88.96695 -27.96419,19.80588 -56.14108,36.57941 -84.24557,50.18026 C 325.02058,706.0057 377.08402,628.39407 433.0486,579.72784 Z M 848.08077,390.63426 763.8895,321.90274 612.34253,390.63426 447.91999,127.22083 848.08077,343.16311 Z m 34.37255,-67.43437 -2.67922,-53.56986 -272.38266,-142.4092 341.72068,86.56404 -60.42242,29.78324 34.66672,21.40923 L 1051.13,204.47522 346.88866,29.484348 842.13854,289.17648 841.14742,299.41752 346.88866,37.86261 597.48471,435.31125 760.91614,362.70956 889.68083,467.89292 884.26811,359.58366 c 66.34203,41.78074 188.09179,135.90223 184.67049,262.46079 -3.0232,111.57975 -67.1974,209.15461 -67.582,209.74151 -47.10786,66.00966 -134.20915,156.90319 -224.6368,195.83444 -139.1647,59.911 -337.40766,85.8836 -438.15839,-38.09343 -39.44583,-48.53864 -49.9047,-107.27153 -41.80372,-166.33617 36.93409,-15.87191 73.97228,-36.90263 110.53073,-62.79444 35.2641,-24.97317 67.82187,-58.35439 94.15228,-96.53716 19.2432,-27.89493 47.71426,-80.31223 22.18489,-117.94637 -7.94257,-11.71257 -19.50569,-18.79368 -33.44026,-20.4821 -34.50381,-4.22315 -71.53745,26.32137 -78.61563,32.48386 -61.91584,53.83778 -112.47223,132.41908 -135.23641,210.20933 -3.38521,11.58072 -6.14135,23.05512 -8.26389,34.38916 -6.02822,2.33912 -12.04738,4.52512 -18.05296,6.56227 -43.98057,14.90649 -87.99281,21.94934 -112.06039,17.96009 C 113.62598,822.99942 89.101307,809.01156 68.898674,787.64061 37.41802,754.32743 49.356772,688.44537 69.152099,642.14377 76.203126,625.64242 83.507562,609.22612 90.816544,592.79708 114.33651,539.92897 138.65752,485.25761 154.16704,428.14932 c 7.57599,-27.89919 -3.21777,-52.88938 -28.16785,-65.2101 -18.50099,-9.13528 -58.498964,-14.07719 -79.041023,-1.0207 l 17.708982,24.62443 c 7.571469,-4.81431 34.580748,-3.23647 46.614531,2.70487 15.96208,7.88492 14.52292,23.15291 12.23743,31.55245 -14.93473,55.00308 -38.803177,108.64949 -61.88416,160.53517 -7.363286,16.55239 -14.726571,33.10052 -21.831885,49.72946 -11.780357,27.54619 -46.1891185,121.67619 5.44891,176.31353 24.913888,26.35963 55.883125,43.73283 87.205375,48.92565 29.58437,4.91213 78.74685,-2.47945 128.28949,-19.27001 0.9504,-0.32321 1.90078,-0.64643 2.85118,-0.97391 -5.1276,65.39723 11.82109,124.74681 49.82776,171.50344 58.95153,72.5507 146.27002,99.6376 237.62092,99.6333 82.295,0 167.8711,-22.0004 238.84285,-52.5534 96.32008,-41.466 185.96033,-133.75874 237.99205,-206.67515 2.8376,-4.24017 69.4239,-105.22588 72.6733,-225.16688 4.1637,-154.05372 -154.81439,-262.58413 -218.10158,-299.60158"
         style="fill:#99ff55;fill-opacity:1;fill-rule:nonzero;stroke:none;stroke-width:0.438719" />
    </g>
  </g>
</svg>
